<?xml version="1.0" encoding="utf-8"?><!DOCTYPE svg PUBLIC "-//W3C//DTD SVG 1.1//EN" "http://www.w3.org/Graphics/SVG/1.1/DTD/svg11.dtd"><svg version="1" xmlns="http://www.w3.org/2000/svg" width="600" height="400"><defs id="_ABSTRACT_RENDERER_ID_4"></defs><rect x="0" y="0" width="600" height="400" stroke="none" stroke-width="0" fill="#ffffff"></rect><g><rect x="365" y="77" width="121" height="72" stroke="none" stroke-width="0" fill-opacity="0" fill="#ffffff"></rect><g column-id="Не заинтересован"><rect x="365" y="77" width="121" height="30" stroke="none" stroke-width="0" fill-opacity="0" fill="#ffffff"></rect><g><text text-anchor="start" x="383" y="88.05" font-family="Arial" font-size="13" stroke="none" stroke-width="0" fill="#222222">Не</text><text text-anchor="start" x="383" y="105.05" font-family="Arial" font-size="13" stroke="none" stroke-width="0" fill="#222222">заинтересован</text></g><circle cx="371.5" cy="83.5" r="6.5" stroke="none" stroke-width="0" fill="#4285f4"></circle></g><g column-id="Воздержались"><rect x="365" y="115" width="121" height="13" stroke="none" stroke-width="0" fill-opacity="0" fill="#ffffff"></rect><g><text text-anchor="start" x="383" y="126.05" font-family="Arial" font-size="13" stroke="none" stroke-width="0" fill="#222222">Воздержались</text></g><circle cx="371.5" cy="121.5" r="6.5" stroke="none" stroke-width="0" fill="#db4437"></circle></g><g column-id="Заинтересован"><rect x="365" y="136" width="121" height="13" stroke="none" stroke-width="0" fill-opacity="0" fill="#ffffff"></rect><g><text text-anchor="start" x="383" y="147.05" font-family="Arial" font-size="13" stroke="none" stroke-width="0" fill="#222222">Заинтересован</text></g><circle cx="371.5" cy="142.5" r="6.5" stroke="none" stroke-width="0" fill="#f4b400"></circle></g></g><g><path d="M230,201L230,87A114,114,0,0,1,343.16881164717813,187.2588184508932L230,201A0,0,0,0,0,230,201" stroke="#ffffff" stroke-width="1" fill="#4285f4"></path><text text-anchor="start" x="266.81478717972175" y="143.11251242167015" font-family="Arial" font-size="13" stroke="none" stroke-width="0" fill="#ffffff">23.1%</text></g><g><path d="M230,201L154.40401696054934,286.3302252915055A114,114,0,0,1,230,87L230,201A0,0,0,0,0,230,201" stroke="#ffffff" stroke-width="1" fill="#f4b400"></path><text text-anchor="start" x="135.39331054576013" y="176.6865398962571" font-family="Arial" font-size="13" stroke="none" stroke-width="0" fill="#ffffff">38.5%</text></g><g><path d="M230,201L343.16881164717813,187.2588184508932A114,114,0,0,1,154.40401696054934,286.3302252915055L230,201A0,0,0,0,0,230,201" stroke="#ffffff" stroke-width="1" fill="#db4437"></path><text text-anchor="start" x="251.35448004028206" y="281.48636733401304" font-family="Arial" font-size="13" stroke="none" stroke-width="0" fill="#ffffff">38.5%</text></g><g></g></svg>